<?xml version="1.0" standalone="no"?>
<!DOCTYPE svg PUBLIC "-//W3C//DTD SVG 20010904//EN"
 "http://www.w3.org/TR/2001/REC-SVG-20010904/DTD/svg10.dtd">
<svg version="1.0" xmlns="http://www.w3.org/2000/svg"
 width="259.000000pt" height="194.000000pt" viewBox="0 0 259.000000 194.000000"
 preserveAspectRatio="xMidYMid meet">

<g transform="translate(0.000000,194.000000) scale(0.100000,-0.100000)"
fill="#000000" stroke="none">
<path d="M1172 1214 c-83 -41 -139 -124 -149 -218 -6 -64 8 -117 47 -180 l31
-48 59 56 c42 40 66 56 87 56 37 1 70 20 94 56 31 47 23 62 -14 26 -18 -18
-36 -32 -40 -32 -17 0 -4 27 30 62 50 52 37 57 -20 8 -54 -47 -69 -39 -26 13
34 41 32 44 -12 22 -35 -19 -69 -70 -69 -106 0 -15 -13 -37 -33 -57 l-34 -33
-19 43 c-42 93 -11 202 74 263 39 27 52 30 116 30 62 0 78 -4 114 -27 127 -85
127 -271 0 -356 -39 -25 -49 -27 -174 -30 -131 -3 -132 -4 -160 -33 l-28 -29
160 0 c152 0 163 1 212 26 56 28 91 63 125 128 31 58 31 174 0 232 -56 106
-133 154 -248 154 -56 0 -82 -5 -123 -26z"/>
</g>
</svg>
