<?xml version="1.0" standalone="no"?>
<!DOCTYPE svg PUBLIC "-//W3C//DTD SVG 20010904//EN"
 "http://www.w3.org/TR/2001/REC-SVG-20010904/DTD/svg10.dtd">
<svg version="1.0" xmlns="http://www.w3.org/2000/svg"
 width="1000.000000pt" height="749.000000pt" viewBox="0 0 1000.000000 749.000000"
 preserveAspectRatio="xMidYMid meet">

<g transform="translate(0.000000,749.000000) scale(0.100000,-0.100000)"
fill="#000000" stroke="none">
<path d="M4835 4797 c-75 -6 -123 -15 -127 -22 -4 -7 -32 -16 -62 -19 -33 -5
-56 -13 -60 -22 -3 -8 -17 -14 -31 -14 -14 0 -34 -9 -45 -20 -11 -11 -28 -20
-38 -20 -11 0 -27 -9 -37 -20 -10 -11 -23 -20 -29 -20 -7 0 -19 -9 -29 -20 -9
-11 -23 -20 -32 -20 -8 0 -19 -9 -25 -20 -6 -11 -17 -20 -25 -20 -8 0 -15 -7
-15 -15 0 -8 -4 -15 -8 -15 -10 0 -72 -54 -72 -63 0 -4 -8 -16 -17 -26 -43
-46 -63 -74 -63 -87 0 -8 -4 -14 -10 -14 -5 0 -16 -15 -24 -34 -8 -18 -19 -37
-25 -40 -6 -4 -11 -15 -11 -25 0 -10 -9 -30 -20 -44 -11 -14 -20 -37 -20 -51
0 -14 -9 -34 -20 -43 -15 -13 -20 -30 -20 -68 0 -32 -6 -60 -17 -75 -16 -22
-18 -49 -18 -201 0 -154 2 -178 18 -193 12 -12 17 -33 17 -72 0 -42 5 -58 20
-71 12 -11 20 -30 20 -49 0 -18 8 -38 20 -49 11 -10 20 -28 20 -39 0 -12 9
-29 20 -39 11 -9 20 -26 20 -37 0 -11 5 -20 10 -20 6 0 16 -12 23 -27 6 -16
20 -34 29 -41 10 -7 18 -19 18 -26 0 -8 7 -16 15 -20 8 -3 15 -12 15 -20 0 -8
9 -18 20 -21 11 -3 20 -13 20 -21 0 -8 4 -14 9 -14 6 0 95 85 200 190 106 105
201 192 215 196 13 3 27 12 30 20 4 11 28 14 104 14 84 0 103 3 125 20 14 11
34 20 45 20 10 0 27 9 37 20 10 11 23 20 30 20 7 0 20 9 30 20 10 11 24 20 30
20 7 0 15 8 19 18 3 9 21 37 40 62 19 25 35 51 35 58 1 8 10 25 21 39 12 16
20 41 20 64 0 39 -13 52 -24 24 -3 -8 -12 -15 -21 -15 -8 0 -15 -7 -15 -15 0
-9 -7 -18 -15 -22 -9 -3 -44 -32 -78 -65 -34 -32 -69 -66 -79 -74 -9 -9 -29
-14 -44 -12 -32 4 -49 44 -34 83 5 13 58 73 117 133 129 129 163 169 163 188
0 27 -40 14 -79 -26 -21 -22 -41 -40 -44 -40 -9 0 -97 -91 -97 -101 0 -5 -7
-9 -15 -9 -8 0 -19 -9 -25 -20 -6 -11 -17 -20 -24 -20 -8 0 -16 -9 -19 -20 -3
-11 -13 -20 -22 -20 -10 0 -23 -7 -30 -16 -10 -14 -15 -13 -45 15 -32 29 -33
31 -17 49 9 10 17 24 17 30 0 6 6 15 14 19 8 4 28 26 46 48 17 22 56 66 86 97
31 31 53 61 50 66 -8 13 -57 2 -85 -19 -13 -11 -32 -19 -41 -19 -10 0 -23 -7
-30 -15 -6 -8 -21 -17 -32 -21 -27 -8 -130 -112 -145 -147 -7 -15 -17 -27 -23
-27 -5 0 -10 -12 -10 -28 0 -15 -9 -44 -20 -65 -16 -29 -20 -56 -20 -127 0
-73 -3 -92 -16 -97 -8 -3 -20 -16 -25 -29 -4 -13 -15 -24 -24 -24 -8 0 -15 -5
-15 -11 0 -6 -25 -35 -55 -64 -30 -30 -55 -59 -55 -64 0 -6 -12 -14 -27 -17
-16 -4 -33 -11 -39 -16 -8 -5 -17 3 -28 26 -9 18 -23 36 -31 40 -8 3 -15 18
-15 33 0 17 -8 33 -20 41 -14 8 -20 23 -20 46 0 20 -6 36 -14 39 -9 4 -17 29
-21 74 -3 37 -13 82 -22 99 -18 34 -15 173 4 196 6 7 13 44 16 82 3 49 10 72
21 78 9 5 16 22 16 38 0 17 9 39 20 50 11 11 20 29 20 40 0 11 9 25 20 32 11
7 20 18 20 25 0 22 94 130 153 174 32 24 65 52 75 62 9 9 22 17 28 17 6 0 21
9 34 20 13 11 30 20 39 20 9 0 30 9 46 20 17 11 44 20 60 20 17 0 42 8 55 18
21 15 49 17 195 17 146 0 174 -2 195 -17 13 -10 40 -18 58 -18 19 0 45 -9 59
-20 14 -11 32 -20 40 -20 8 0 26 -9 40 -20 14 -11 32 -20 39 -20 7 0 17 -6 21
-13 4 -6 27 -25 50 -40 35 -24 82 -71 169 -168 8 -9 14 -22 14 -30 0 -8 9 -20
20 -27 11 -7 20 -23 20 -37 0 -14 7 -28 15 -31 8 -3 17 -22 21 -42 4 -21 13
-44 21 -54 8 -9 17 -48 20 -92 3 -42 10 -79 14 -82 12 -7 11 -158 0 -169 -5
-6 -12 -43 -14 -83 -3 -48 -10 -79 -21 -91 -9 -9 -16 -30 -16 -44 0 -15 -9
-36 -20 -47 -11 -11 -20 -29 -20 -40 0 -11 -9 -28 -20 -37 -11 -10 -20 -23
-20 -31 0 -7 -7 -15 -15 -18 -8 -3 -17 -14 -20 -23 -8 -26 -159 -171 -177
-171 -5 0 -17 -9 -28 -20 -11 -11 -27 -20 -35 -20 -8 0 -15 -4 -15 -10 0 -5
-17 -14 -39 -20 -21 -5 -44 -17 -51 -25 -7 -8 -29 -15 -50 -15 -23 0 -46 -8
-60 -20 -22 -19 -37 -20 -482 -20 -412 0 -458 -2 -458 -16 0 -9 -9 -18 -20
-21 -11 -3 -20 -11 -20 -18 0 -8 -9 -17 -20 -20 -11 -3 -20 -10 -20 -15 0 -12
-48 -60 -60 -60 -5 0 -12 -9 -15 -20 -3 -11 -13 -20 -21 -20 -8 0 -14 -7 -14
-16 0 -14 59 -15 594 -12 531 3 596 5 612 19 11 9 40 20 66 23 25 4 51 13 58
20 6 8 26 17 44 20 19 4 37 13 40 21 3 8 14 15 24 15 11 0 30 8 43 18 13 10
32 21 42 25 9 3 17 10 17 15 0 5 14 15 30 22 17 7 30 17 30 22 0 5 7 11 15 14
16 6 105 89 105 98 0 3 12 18 26 33 47 50 134 193 134 219 0 6 7 17 15 24 8 7
15 21 15 33 0 11 8 34 19 51 10 17 21 55 24 85 4 29 12 60 19 69 10 11 13 62
13 191 0 149 -3 181 -17 206 -10 17 -18 51 -18 76 0 28 -6 51 -14 58 -8 7 -18
26 -21 43 -8 34 -83 187 -100 203 -6 6 -24 30 -40 54 -16 24 -35 45 -42 48 -7
3 -13 9 -13 13 0 11 -89 100 -100 100 -5 0 -14 9 -20 20 -6 11 -17 20 -25 20
-7 0 -21 8 -31 17 -18 18 -37 31 -89 58 -16 9 -41 23 -55 30 -14 8 -33 15 -43
15 -10 0 -20 6 -23 14 -3 8 -27 17 -55 21 -27 4 -55 13 -62 20 -11 11 -67 17
-257 29 -30 2 -109 -1 -175 -7z"/>
</g>
</svg>
